<svg width="54" height="60" viewBox="0 0 54 60" fill="none" xmlns="http://www.w3.org/2000/svg">
<path d="M52.9848 15.0008C52.5673 14.2758 51.9898 13.6433 51.3548 13.2758L29.3148 0.550762C28.0423 -0.184238 25.9648 -0.184238 24.6948 0.550762L2.64979 13.2758C1.37979 14.0083 0.342285 15.8083 0.342285 17.2758V42.7258C0.342285 43.4608 0.602285 44.2758 1.01979 45.0008C1.43729 45.7258 2.01479 46.3583 2.64979 46.7258L24.6898 59.4508C25.9598 60.1833 28.0398 60.1833 29.3098 59.4508L51.3498 46.7258C51.9848 46.3583 52.5623 45.7258 52.9798 45.0008C53.3973 44.2758 53.6548 43.4608 53.6548 42.7258V17.2758C53.6623 16.5408 53.4048 15.7258 52.9848 15.0008ZM26.9998 47.7758C17.1998 47.7758 9.22729 39.8008 9.22729 30.0008C9.22729 20.2008 17.2023 12.2258 27.0023 12.2258C30.1202 12.2317 33.182 13.055 35.8825 14.6136C38.5829 16.1721 40.8274 18.4115 42.3923 21.1083L34.7023 25.5583C33.9204 24.2076 32.7978 23.0858 31.4466 22.3049C30.0954 21.524 28.5629 21.1114 27.0023 21.1083C24.6445 21.1102 22.3838 22.0478 20.7165 23.715C19.0493 25.3822 18.1118 27.6429 18.1098 30.0008C18.1131 32.3573 19.0509 34.6163 20.7174 36.2824C22.384 37.9485 24.6433 38.8856 26.9998 38.8883C28.5598 38.8849 30.0916 38.4727 31.4427 37.6928C32.7937 36.9129 33.9167 35.7925 34.6998 34.4433L42.3948 38.8933C40.8291 41.5904 38.5837 43.83 35.8824 45.3885C33.1811 46.9471 30.1184 47.7702 26.9998 47.7758ZM44.7748 30.9883H42.7998V32.9633H40.8248V30.9883H38.8498V29.0133H40.8248V27.0383H42.7998V29.0133H44.7748V30.9883ZM52.1798 30.9883H50.2048V32.9633H48.2298V30.9883H46.2548V29.0133H48.2298V27.0383H50.2048V29.0133H52.1798V30.9883Z" fill="#00599C"/>
</svg>
