<svg width="40" height="60" viewBox="0 0 40 60" fill="none" xmlns="http://www.w3.org/2000/svg">
<path d="M20 30C20 24.5335 24.4315 20.1018 29.8982 20.1018C35.3647 20.1018 39.7964 24.5335 39.7964 30C39.7964 35.4667 35.3647 39.8982 29.8982 39.8982C24.4315 39.8982 20 35.4667 20 30Z" fill="#1ABCFE"/>
<path d="M0.203613 49.7964C0.203613 44.3299 4.63518 39.8982 10.1018 39.8982H20V49.7964C20 55.2631 15.5685 59.6946 10.1018 59.6946C4.63518 59.6946 0.203613 55.2631 0.203613 49.7964Z" fill="#0ACF83"/>
<path d="M20 0.30542V20.1017H29.8982C35.3649 20.1017 39.7964 15.6702 39.7964 10.2036C39.7964 4.73699 35.3649 0.30542 29.8982 0.30542H20Z" fill="#FF7262"/>
<path d="M0.203613 10.2036C0.203613 15.6702 4.63518 20.1018 10.1018 20.1018H20V0.30542H10.1018C4.63518 0.30542 0.203613 4.73699 0.203613 10.2036Z" fill="#F24E1E"/>
<path d="M0.203613 30C0.203613 35.4667 4.63518 39.8982 10.1018 39.8982H20V20.1018H10.1018C4.63518 20.1018 0.203613 24.5335 0.203613 30Z" fill="#A259FF"/>
</svg>
