<svg width="75" height="75" viewBox="0 0 75 75" fill="none" xmlns="http://www.w3.org/2000/svg">
<path d="M37.5 4.6875C19.3799 4.6875 4.6875 19.7607 4.6875 38.335C4.6875 53.2031 14.0918 65.8008 27.1289 70.2539C27.3118 70.2936 27.4984 70.3133 27.6855 70.3125C28.9014 70.3125 29.3701 69.419 29.3701 68.6426C29.3701 67.8369 29.3408 65.7275 29.3262 62.915C28.2408 63.1695 27.1304 63.3022 26.0156 63.3106C19.7021 63.3106 18.2666 58.4033 18.2666 58.4033C16.7725 54.5215 14.6191 53.4815 14.6191 53.4815C11.7627 51.4746 14.6045 51.416 14.8242 51.416H14.8389C18.1348 51.709 19.8633 54.9023 19.8633 54.9023C21.5039 57.7734 23.7012 58.5791 25.6641 58.5791C26.962 58.5532 28.2398 58.2537 29.4141 57.7002C29.707 55.5322 30.5566 54.0527 31.4941 53.2031C24.2139 52.3535 16.5527 49.4678 16.5527 36.5772C16.5527 32.9004 17.8271 29.8975 19.9219 27.5537C19.585 26.7041 18.457 23.2764 20.2441 18.6475C20.4839 18.5901 20.7302 18.5655 20.9766 18.5742C22.1631 18.5742 24.8438 19.0283 29.2676 22.1045C34.6429 20.6006 40.3278 20.6006 45.7031 22.1045C50.127 19.0283 52.8076 18.5742 53.9941 18.5742C54.2405 18.5655 54.4868 18.5901 54.7266 18.6475C56.5137 23.2764 55.3857 26.7041 55.0488 27.5537C57.1436 29.9121 58.418 32.915 58.418 36.5772C58.418 49.4971 50.7422 52.3389 43.4326 53.1738C44.6045 54.2139 45.6592 56.2647 45.6592 59.3994C45.6592 63.8965 45.6152 67.5293 45.6152 68.6279C45.6152 69.419 46.0693 70.3125 47.2852 70.3125C47.482 70.3134 47.6783 70.2937 47.8711 70.2539C60.9228 65.8008 70.3125 53.1885 70.3125 38.335C70.3125 19.7607 55.6201 4.6875 37.5 4.6875Z" fill="white"/>
</svg>
