<svg width="75" height="75" viewBox="0 0 75 75" fill="none" xmlns="http://www.w3.org/2000/svg">
<path d="M51.1714 10.1558C54.7943 10.1666 58.2658 11.6106 60.8276 14.1724C63.3894 16.7342 64.8334 20.2057 64.8442 23.8286V51.1714C64.8334 54.7943 63.3894 58.2658 60.8276 60.8276C58.2658 63.3894 54.7943 64.8334 51.1714 64.8442H23.8286C20.2057 64.8334 16.7342 63.3894 14.1724 60.8276C11.6106 58.2658 10.1666 54.7943 10.1558 51.1714V23.8286C10.1666 20.2057 11.6106 16.7342 14.1724 14.1724C16.7342 11.6106 20.2057 10.1666 23.8286 10.1558H51.1714ZM51.1714 4.6875H23.8286C13.3008 4.6875 4.6875 13.3008 4.6875 23.8286V51.1714C4.6875 61.6992 13.3008 70.3125 23.8286 70.3125H51.1714C61.6992 70.3125 70.3125 61.6992 70.3125 51.1714V23.8286C70.3125 13.3008 61.6992 4.6875 51.1714 4.6875Z" fill="white"/>
<path d="M55.273 23.8286C54.4617 23.8286 53.6688 23.5881 52.9943 23.1374C52.3198 22.6867 51.794 22.0461 51.4836 21.2967C51.1732 20.5472 51.0919 19.7225 51.2502 18.9269C51.4085 18.1313 51.7991 17.4004 52.3727 16.8268C52.9463 16.2532 53.6772 15.8626 54.4728 15.7043C55.2684 15.546 56.0931 15.6273 56.8426 15.9377C57.592 16.2481 58.2326 16.7738 58.6833 17.4483C59.134 18.1228 59.3745 18.9158 59.3745 19.7271C59.3757 20.266 59.2704 20.7999 59.0647 21.298C58.8589 21.7962 58.5569 22.2488 58.1758 22.6299C57.7947 23.011 57.3421 23.313 56.8439 23.5188C56.3458 23.7245 55.8119 23.8298 55.273 23.8286ZM37.5 26.562C39.6633 26.562 41.7781 27.2035 43.5768 28.4054C45.3756 29.6073 46.7775 31.3156 47.6054 33.3142C48.4333 35.3129 48.6499 37.5121 48.2278 39.6339C47.8058 41.7557 46.764 43.7046 45.2343 45.2343C43.7046 46.764 41.7557 47.8058 39.6339 48.2278C37.5121 48.6499 35.3129 48.4333 33.3142 47.6054C31.3156 46.7775 29.6073 45.3756 28.4054 43.5768C27.2035 41.7781 26.562 39.6633 26.562 37.5C26.5651 34.6 27.7185 31.8197 29.7691 29.7691C31.8197 27.7185 34.6 26.5651 37.5 26.562ZM37.5 21.0938C34.2552 21.0938 31.0832 22.056 28.3852 23.8587C25.6872 25.6614 23.5844 28.2238 22.3426 31.2216C21.1009 34.2195 20.776 37.5182 21.409 40.7007C22.042 43.8832 23.6046 46.8065 25.899 49.101C28.1935 51.3954 31.1168 52.958 34.2993 53.591C37.4818 54.2241 40.7806 53.8992 43.7784 52.6574C46.7763 51.4157 49.3386 49.3128 51.1413 46.6148C52.944 43.9168 53.9063 40.7449 53.9063 37.5C53.9063 33.1488 52.1777 28.9758 49.101 25.899C46.0242 22.8223 41.8512 21.0938 37.5 21.0938Z" fill="white"/>
</svg>
