<svg width="75" height="75" viewBox="0 0 75 75" fill="none" xmlns="http://www.w3.org/2000/svg">
<path d="M65.064 4.6875H10.2949C7.30225 4.6875 4.6875 6.84082 4.6875 9.79834V64.689C4.6875 67.6626 7.30225 70.3125 10.2949 70.3125H65.0478C68.0566 70.3125 70.3125 67.645 70.3125 64.689V9.79834C70.3301 6.84082 68.0566 4.6875 65.064 4.6875ZM25.0298 59.3892H15.6284V30.1582H25.0298V59.3892ZM20.6543 25.7139H20.5869C17.5781 25.7139 15.6299 23.4741 15.6299 20.6704C15.6299 17.8154 17.6294 15.6284 20.7056 15.6284C23.7817 15.6284 25.6641 17.7993 25.7314 20.6704C25.73 23.4741 23.7817 25.7139 20.6543 25.7139ZM59.3892 59.3892H49.9878V43.4062C49.9878 39.5771 48.6196 36.9609 45.2183 36.9609C42.6196 36.9609 41.0815 38.7188 40.3975 40.4312C40.1411 41.0464 40.0723 41.8843 40.0723 42.7397V59.3892H30.6709V30.1582H40.0723V34.2261C41.4404 32.2778 43.5776 29.4741 48.5508 29.4741C54.7222 29.4741 59.3906 33.542 59.3906 42.312L59.3892 59.3892Z" fill="white"/>
</svg>
