<svg xmlns="http://www.w3.org/2000/svg" viewBox="0 0 292.18 333.03"><defs><style>.cls-1{fill:#fff;}</style></defs><g id="Layer_2" data-name="Layer 2"><g id="Logo"><path class="cls-1" d="M51.78,132.25,7.38,226.63,1.06,240.06c.09-.19-1.46,3-1,3.25s2.46-2.62,2.34-2.45a81.65,81.65,0,0,0,8-13.78l44.4-94.38,6.32-13.43c-.09.19,1.46-3,1-3.25s-2.46,2.62-2.33,2.45a81.41,81.41,0,0,0-8,13.78Z"/><path class="cls-1" d="M105.39,19.51l42,101.36,6.07,14.63L164.73,116H62.07l-1,3.25L108.9,17.67l6.78-14.4c-.09.19,1.46-3,1-3.25s-2.47,2.63-2.34,2.46a80.93,80.93,0,0,0-8,13.77L58.55,117.85l-6.77,14.4c.24-.52-1.44,3.25-1,3.25H153.48c2.19,0,5.67-7.56,6.6-9.18,1.12-1.93,5.66-7.87,4.65-10.3l-42-101.36L116.64,0c0-.12-6.12,8.35-6.6,9.18C108.92,11.14,104.38,17.08,105.39,19.51Z"/><path class="cls-1" d="M292.12,313.33H250.23c-1.09,0-3,.38-3.77-.28s-1.08-2.6-1.41-3.39l-2.85-6.88L233,280.58,179.21,150.92,164.73,116,153.48,135.5H272.77c.55,0,4.84.13,4.32-.43.49.52.07,3.88.08,4.53l.2,10.3.65,34.5,1.71,90.46,1.08,57.46c0,1.48,4.78-5.55,5.13-6.12,1.51-2.45,2.94-5,4.23-7.56.67-1.33,2-3.31,2-4.81L290.92,247l-2-106-.47-24.55-.06-.5H164.73c-2.18,0-5.66,7.56-6.6,9.18-1.11,1.94-5.65,7.88-4.65,10.3l37.68,90.83,27.54,66.4,10.24,24.69c1.87,4.51,3.39,9.5,5.72,13.79.68,1.26.31,1.14,1.35,1.61s3.64,0,4.83,0h40c2.19,0,5.66-7.57,6.6-9.19C287.92,322.86,292.32,313.33,292.12,313.33Z"/><path class="cls-1" d="M246.57,313.33H129c-2.19,0-5.67,7.57-6.6,9.18-.45.78-4.85,10.31-4.65,10.31H235.32c2.19,0,5.67-7.56,6.6-9.18.45-.78,4.85-10.31,4.65-10.31Z"/><path class="cls-1" d="M100.85,135v98.66c0,1.46,4.78-5.55,5.12-6.12,1.9-3.07,6.24-8.51,6.24-12.38V116.52c0-1.46-4.77,5.54-5.12,6.11-1.89,3.07-6.24,8.52-6.24,12.38Z"/></g></g></svg>