<svg width="75" height="75" viewBox="0 0 75 75" fill="none" xmlns="http://www.w3.org/2000/svg">
<path d="M62.5312 48.0625C58.6875 48.0625 54.9688 47.4375 51.5 46.3125C50.4062 45.9375 49.1875 46.2188 48.3438 47.0625L43.4375 53.2188C34.5938 49 26.3125 41.0312 21.9063 31.875L28 26.6875C28.8438 25.8125 29.0938 24.5938 28.75 23.5C27.5938 20.0312 27 16.3125 27 12.4688C27 10.7812 25.5938 9.375 23.9062 9.375H13.0938C11.4062 9.375 9.375 10.125 9.375 12.4688C9.375 41.5 33.5313 65.625 62.5312 65.625C64.75 65.625 65.625 63.6562 65.625 61.9375V51.1563C65.625 49.4688 64.2188 48.0625 62.5312 48.0625Z" fill="white"/>
</svg>
