<svg width="75" height="75" viewBox="0 0 75 75" fill="none" xmlns="http://www.w3.org/2000/svg">
<g clip-path="url(#clip0)">
<path d="M0.849609 40.7227C0.773169 40.7265 0.700891 40.7587 0.646769 40.8128C0.592647 40.8669 0.560532 40.9392 0.556641 41.0156L0 45.2109L0.547852 49.3359C0.552209 49.4135 0.58546 49.4866 0.641047 49.5408C0.696634 49.595 0.770523 49.6265 0.848145 49.6289C0.924259 49.6241 0.995999 49.5917 1.04993 49.5377C1.10386 49.4838 1.13628 49.4121 1.14111 49.3359L1.7915 45.2095L1.14697 41.0156C1.14214 40.9395 1.10972 40.8678 1.05579 40.8138C1.00186 40.7599 0.930118 40.7275 0.854004 40.7227H0.849609ZM3.93311 38.4258C3.93311 38.343 3.90023 38.2637 3.84172 38.2052C3.78321 38.1466 3.70384 38.1138 3.62109 38.1138C3.53834 38.1138 3.45898 38.1466 3.40047 38.2052C3.34195 38.2637 3.30908 38.343 3.30908 38.4258L2.57666 45.2109L3.30908 51.8467C3.30908 51.9294 3.34195 52.0088 3.40047 52.0673C3.45898 52.1258 3.53834 52.1587 3.62109 52.1587C3.70384 52.1587 3.78321 52.1258 3.84172 52.0673C3.90023 52.0088 3.93311 51.9294 3.93311 51.8467L4.77246 45.2095L3.93311 38.4243V38.4258ZM15.5522 32.1665C15.4034 32.1713 15.262 32.2325 15.1567 32.3378C15.0514 32.4431 14.9901 32.5846 14.9854 32.7334L14.3994 45.2168L14.9854 53.2852C14.9927 53.4307 15.0558 53.5679 15.1614 53.6683C15.2671 53.7687 15.4072 53.8247 15.553 53.8247C15.6987 53.8247 15.8389 53.7687 15.9445 53.6683C16.0502 53.5679 16.1132 53.4307 16.1206 53.2852L16.7842 45.2168L16.1206 32.7334C16.1158 32.5843 16.0544 32.4427 15.9488 32.3373C15.8431 32.232 15.7013 32.1709 15.5522 32.1665ZM9.53906 36.5054C9.42356 36.5087 9.3137 36.5561 9.232 36.6378C9.15029 36.7195 9.10293 36.8293 9.09961 36.9448L8.4375 45.2139L9.09814 53.2163C9.09814 53.3329 9.14444 53.4446 9.22686 53.5271C9.30927 53.6095 9.42105 53.6558 9.5376 53.6558C9.65415 53.6558 9.76592 53.6095 9.84834 53.5271C9.93075 53.4446 9.97705 53.3329 9.97705 53.2163L10.7285 45.2139L9.97705 36.9404C9.97232 36.8261 9.92457 36.7177 9.84336 36.637C9.76214 36.5564 9.65346 36.5093 9.53906 36.5054ZM21.6621 53.8477C21.8455 53.8447 22.0205 53.7706 22.1503 53.6411C22.2801 53.5115 22.3545 53.3367 22.3579 53.1533L22.9336 45.2212L22.3579 28.6011C22.3579 28.4165 22.2846 28.2396 22.1541 28.1091C22.0236 27.9786 21.8466 27.9053 21.6621 27.9053C21.4776 27.9053 21.3006 27.9786 21.1701 28.1091C21.0396 28.2396 20.9663 28.4165 20.9663 28.6011L20.4551 45.2197L20.9663 53.1548C20.9693 53.3381 21.0437 53.513 21.1736 53.6424C21.3036 53.7718 21.4788 53.8454 21.6621 53.8477ZM34.1719 53.8843C34.4237 53.8805 34.6641 53.7785 34.842 53.6002C35.0198 53.4218 35.121 53.1811 35.124 52.9292L35.5254 45.2241L35.124 26.0347C35.124 25.7821 35.0237 25.54 34.8451 25.3614C34.6666 25.1828 34.4244 25.0825 34.1719 25.0825C33.9193 25.0825 33.6772 25.1828 33.4986 25.3614C33.32 25.54 33.2197 25.7821 33.2197 26.0347L32.8608 45.2241C32.8608 45.2358 33.2197 52.9395 33.2197 52.9395C33.225 53.1896 33.3273 53.428 33.5049 53.6043C33.6825 53.7805 33.9217 53.8809 34.1719 53.8843ZM27.8701 53.855C28.0884 53.8531 28.2971 53.7653 28.4511 53.6107C28.6052 53.4561 28.6922 53.2471 28.6934 53.0288L29.1826 45.2168L28.6934 28.4766C28.698 28.3654 28.6802 28.2545 28.6409 28.1504C28.6016 28.0464 28.5417 27.9514 28.4647 27.8711C28.3877 27.7908 28.2953 27.7269 28.193 27.6833C28.0907 27.6396 27.9806 27.6171 27.8694 27.6171C27.7582 27.6171 27.6481 27.6396 27.5458 27.6833C27.4435 27.7269 27.351 27.7908 27.2741 27.8711C27.1971 27.9514 27.1372 28.0464 27.0979 28.1504C27.0586 28.2545 27.0407 28.3654 27.0454 28.4766L26.606 45.2183L27.0454 53.0288C27.0477 53.2464 27.1355 53.4544 27.2898 53.6079C27.4441 53.7613 27.6525 53.848 27.8701 53.8491V53.855ZM12.5332 53.7817C12.6651 53.7785 12.7907 53.7249 12.8843 53.632C12.978 53.5392 13.0327 53.414 13.0371 53.2822L13.7446 45.2124L13.0371 37.5366C13.0371 37.403 12.984 37.2748 12.8895 37.1803C12.795 37.0858 12.6668 37.0327 12.5332 37.0327C12.3996 37.0327 12.2714 37.0858 12.1769 37.1803C12.0824 37.2748 12.0293 37.403 12.0293 37.5366L11.4053 45.2095L12.0293 53.2778C12.0316 53.4108 12.0854 53.5376 12.1794 53.6316C12.2734 53.7257 12.4003 53.7795 12.5332 53.7817ZM6.56836 53.3394C6.66584 53.3359 6.7585 53.2961 6.82814 53.2278C6.89779 53.1595 6.93941 53.0676 6.94482 52.9702L7.74023 45.2065L6.94629 37.1499C6.94629 37.0501 6.90663 36.9543 6.83602 36.8837C6.76542 36.8131 6.66967 36.7734 6.56982 36.7734C6.46998 36.7734 6.37422 36.8131 6.30362 36.8837C6.23302 36.9543 6.19336 37.0501 6.19336 37.1499L5.49316 45.2065L6.19336 52.9702C6.1967 53.0682 6.23742 53.1612 6.30715 53.2301C6.37688 53.299 6.47034 53.3386 6.56836 53.3408V53.3394ZM31.0093 28.2026C30.7733 28.2038 30.5474 28.2982 30.3808 28.4654C30.2142 28.6325 30.1205 28.8588 30.1201 29.0947L29.7231 45.2241L30.1201 52.9878C30.1294 53.2172 30.2271 53.4341 30.3927 53.5931C30.5583 53.7521 30.779 53.8409 31.0085 53.8409C31.2381 53.8409 31.4588 53.7521 31.6244 53.5931C31.79 53.4341 31.8877 53.2172 31.897 52.9878L32.3364 45.2241L31.897 29.0918C31.8958 28.8566 31.802 28.6313 31.6358 28.4649C31.4696 28.2984 31.2445 28.2042 31.0093 28.2026ZM18.6035 53.8638C18.7695 53.8601 18.9278 53.7925 19.0453 53.6753C19.1629 53.558 19.2308 53.3999 19.2349 53.2339L19.8545 45.2197L19.2275 29.8828C19.2197 29.7204 19.1497 29.5673 19.032 29.4551C18.9144 29.343 18.758 29.2804 18.5955 29.2804C18.4329 29.2804 18.2766 29.343 18.1589 29.4551C18.0412 29.5673 17.9712 29.7204 17.9634 29.8828L17.4155 45.2197L17.9648 53.2368C17.9687 53.4039 18.0375 53.5629 18.1568 53.68C18.2761 53.7971 18.4364 53.863 18.6035 53.8638ZM25.5132 53.1064L26.0449 45.2256L25.5132 28.0459C25.5177 27.9434 25.5014 27.841 25.4652 27.7449C25.4291 27.6488 25.3739 27.561 25.3029 27.4869C25.2319 27.4127 25.1467 27.3537 25.0523 27.3134C24.9579 27.2731 24.8563 27.2523 24.7537 27.2523C24.651 27.2523 24.5494 27.2731 24.455 27.3134C24.3606 27.3537 24.2754 27.4127 24.2044 27.4869C24.1334 27.561 24.0782 27.6488 24.0421 27.7449C24.0059 27.841 23.9896 27.9434 23.9941 28.0459L23.521 45.2256L23.9941 53.1108C23.9941 53.3121 24.0741 53.5051 24.2164 53.6474C24.3587 53.7897 24.5517 53.8696 24.7529 53.8696C24.9542 53.8696 25.1472 53.7897 25.2895 53.6474C25.4318 53.5051 25.5117 53.3121 25.5117 53.1108L25.5132 53.1064ZM65.7715 35.3174C64.5474 35.3157 63.3355 35.5598 62.2075 36.0352C61.4751 27.6592 54.501 21.0938 45.9976 21.0938C43.9792 21.0975 41.9788 21.4739 40.0972 22.2041C39.4014 22.4751 39.2183 22.7549 39.2095 23.2969V52.793C39.2135 53.0659 39.3168 53.3281 39.5002 53.5303C39.6835 53.7325 39.9343 53.861 40.2056 53.8916L65.7759 53.9077C70.8706 53.9077 75.0044 49.7461 75.0044 44.6133C75.0044 39.4805 70.8735 35.3174 65.7759 35.3174H65.7715ZM37.3228 23.272C37.0523 23.2743 36.7938 23.3833 36.6034 23.5754C36.413 23.7674 36.3061 24.0269 36.3062 24.2974L35.8887 45.2271L36.3062 52.8252C36.3016 52.9618 36.3246 53.098 36.3739 53.2256C36.4232 53.3531 36.4977 53.4694 36.593 53.5675C36.6882 53.6655 36.8023 53.7434 36.9284 53.7964C37.0544 53.8493 37.1899 53.8763 37.3266 53.8757C37.4633 53.8751 37.5985 53.847 37.7241 53.7929C37.8497 53.7389 37.9631 53.66 38.0575 53.5611C38.1519 53.4622 38.2254 53.3453 38.2736 53.2173C38.3218 53.0894 38.3436 52.953 38.3379 52.8164V52.8252L38.7905 45.2271L38.3379 24.29C38.336 24.0211 38.2285 23.7637 38.0386 23.5733C37.8488 23.3829 37.5917 23.2747 37.3228 23.272Z" fill="white"/>
</g>
<defs>
<clipPath id="clip0">
<rect width="75" height="75" fill="white"/>
</clipPath>
</defs>
</svg>
