<svg xmlns="http://www.w3.org/2000/svg" viewBox="0 0 1754.17 6498.47"><defs><style>.cls-1{fill:none;stroke:#595959;stroke-miterlimit:10;stroke-width:5px;}</style></defs><g id="Layer_2" data-name="Layer 2"><g id="vector"><path class="cls-1" d="M1394.18,833.07c.7-10.59,2.75-62.12-34.36-103.24-42.3-46.87-102.13-45-116.42-44.52-12.87.41-61.81,2.85-102.11,40.73-41.74,39.24-45.43,89.82-46.76,108-6.94,95.17,64.78,162.31,79.21,176.17,62.45,60,136,68.8,161.75,71.51,149.36,15.7,257.81-92.51,277.69-111.76,107-103.56,115.75-234.37,119.28-287,17.15-255.12-171.39-432.34-203.25-461.26-162-147-353.65-163-434.2-168.59C721.47,27.23,450.22,271.26,375.49,344.81,83,632.68,67.31,1000.26,65.83,1083.24c0,0-20.77,640.28,810.23,532.28s874,540,874,540,66-973-874-540S3.56,1084,3.56,1084c1.56-87,18-472.16,324.5-773.82,78.31-77.07,362.56-332.8,754-305.7,84.41,5.85,285.3,22.66,455,176.67,33.39,30.3,231,216,213,483.37-3.7,55.13-12.91,192.21-125,300.73-20.83,20.18-134.48,133.58-291,117.12-27-2.84-104-12.08-169.5-74.93-15.12-14.53-90.27-84.89-83-184.62,1.39-19,5.26-72,49-113.14,42.23-39.7,93.52-42.25,107-42.68,15-.48,77.68-2.47,122,46.65,38.89,43.09,36.74,97.09,36,108.18"/><path class="cls-1" d="M67.11,3240.52c-.58-12.13-.83-22.15-1-29.76,0,0-20.77-640.27,810.23-532.27s874-540,874-540,66,973-874,540S3.87,3210,3.87,3210c.14,7.84.4,18.11,1,30.53"/><path class="cls-1" d="M4.82,3240.43c-.59,12.42-.85,22.69-1,30.53,0,0-67.5,964.5,872.5,531.5s874,540,874,540-43-648-874-540S66.1,3270.19,66.1,3270.19c.14-7.61.39-17.63,1-29.76"/><path class="cls-1" d="M1394.63,5665.41c.7,10.58,2.76,62.12-34.35,103.23-42.3,46.87-102.14,45-116.42,44.52-12.87-.41-61.82-2.85-102.11-40.73-41.74-39.24-45.43-89.82-46.76-108-6.94-95.17,64.77-162.31,79.21-176.17,62.45-60,136-68.8,161.75-71.51,149.35-15.7,257.8,92.51,277.69,111.76,107,103.57,115.75,234.38,119.28,287,17.15,255.12-171.4,432.34-203.26,461.26-161.94,147-353.64,163-434.19,168.59C721.93,6471.24,450.68,6227.21,376,6153.66,83.47,5865.79,67.77,5498.21,66.29,5415.23c0,0-20.77-640.28,810.23-532.28s874-540,874-540,66,973-874,540S4,5414.45,4,5414.45c1.55,87,18,472.16,324.5,773.82,78.31,77.07,362.56,332.8,754,305.7,84.41-5.85,285.29-22.66,455-176.67,33.39-30.3,231-216,213-483.36-3.7-55.14-12.92-192.22-125-300.74-20.84-20.18-134.48-133.58-291-117.12-27,2.84-104.06,12.08-169.5,74.94-15.12,14.52-90.28,84.88-83,184.61,1.39,19,5.26,72,49,113.15,42.22,39.69,93.52,42.25,107,42.67,15,.48,77.68,2.47,122-46.64,38.89-43.09,36.74-97.1,36-108.19"/></g></g></svg>