<svg width="75" height="75" viewBox="0 0 75 75" fill="none" xmlns="http://www.w3.org/2000/svg">
<g clip-path="url(#clip0)">
<path d="M74.5077 21.7954C74.5077 15.2036 69.6591 9.90088 63.6679 9.90088C55.5527 9.52148 47.2763 9.375 38.8183 9.375H36.1816C27.7441 9.375 19.453 9.52148 11.3378 9.90234C5.36124 9.90234 0.51261 15.2344 0.51261 21.8262C0.146399 27.0395 -0.00887484 32.2544 -8.57793e-05 37.4692C-0.0147342 42.6841 0.151281 47.9038 0.497961 53.1284C0.497961 59.7202 5.34659 65.0669 11.3232 65.0669C19.8485 65.4624 28.5937 65.6382 37.4853 65.6235C46.3915 65.6528 55.1122 65.4673 63.6474 65.0669C69.6386 65.0669 74.4872 59.7202 74.4872 53.1284C74.8388 47.8989 74.9999 42.6841 74.9853 37.4546C75.0185 32.2397 74.8593 27.02 74.5077 21.7954ZM30.3222 51.8394V23.0552L51.5624 37.4399L30.3222 51.8394Z" fill="white"/>
</g>
<defs>
<clipPath id="clip0">
<rect width="75" height="75" fill="white"/>
</clipPath>
</defs>
</svg>
